HIERARCHY
ROOT Hips
{
	OFFSET 0.000000 87.230942 0.000000
	CHANNELS 6 Xposition Yposition Zposition Xrotation Yrotation Zrotation
	JOINT Pelvis
	{
		OFFSET 0.000000 0.000000 0.000000
		CHANNELS 3 Xrotation Yrotation Zrotation
		JOINT LeftUpLeg
		{
			OFFSET 12.017000 -9.376404 -2.439400
			CHANNELS 3 Xrotation Yrotation Zrotation
			JOINT LeftLeg
			{
				OFFSET -0.007312 -32.846973 2.110600
				CHANNELS 3 Xrotation Yrotation Zrotation
				JOINT LeftFoot
				{
					OFFSET 0.007312 -32.065170 -0.570400
					CHANNELS 3 Xrotation Yrotation Zrotation
					JOINT LeftToeBase
					{
						OFFSET 0.728300 -11.045900 13.180700
						CHANNELS 3 Xrotation Yrotation Zrotation
						End Site
						{
							OFFSET 0.000000 17.212589 0.000000
						}
					}
				}
				JOINT LeftPantLeg
				{
					OFFSET 0.002788 -16.709013 -3.143600
					CHANNELS 3 Xrotation Yrotation Zrotation
					End Site
					{
						OFFSET -0.605125 24.528742 0.000000
					}
				}
			}
			JOINT Left_Butt
			{
				OFFSET -6.630234 1.326584 -3.183700
				CHANNELS 3 Xrotation Yrotation Zrotation
				End Site
				{
					OFFSET -0.498041 20.188049 0.000000
				}
			}
		}
		JOINT RightUpLeg
		{
			OFFSET -11.717000 -9.376404 -2.439400
			CHANNELS 3 Xrotation Yrotation Zrotation
			JOINT RightLeg
			{
				OFFSET -0.003241 -32.846912 2.110600
				CHANNELS 3 Xrotation Yrotation Zrotation
				JOINT RightFoot
				{
					OFFSET 0.003241 -32.065136 -0.570500
					CHANNELS 3 Xrotation Yrotation Zrotation
					JOINT RightToeBase
					{
						OFFSET -0.728300 -11.045901 13.180700
						CHANNELS 3 Xrotation Yrotation Zrotation
						End Site
						{
							OFFSET 0.000000 17.212593 0.000000
						}
					}
				}
				JOINT RightPantLeg
				{
					OFFSET 0.008142 -16.708982 -3.143700
					CHANNELS 3 Xrotation Yrotation Zrotation
					End Site
					{
						OFFSET 0.605088 24.528715 0.000000
					}
				}
			}
			JOINT Right_Butt
			{
				OFFSET 6.630732 1.326584 -3.183700
				CHANNELS 3 Xrotation Yrotation Zrotation
				End Site
				{
					OFFSET 0.498015 20.188240 0.000000
				}
			}
		}
	}
	JOINT Spine
	{
		OFFSET -0.062400 7.848404 3.918300
		CHANNELS 3 Xrotation Yrotation Zrotation
		JOINT Spine1
		{
			OFFSET -0.072800 11.422302 0.713400
			CHANNELS 3 Xrotation Yrotation Zrotation
			JOINT Spine2
			{
				OFFSET -0.083200 13.054001 -1.931600
				CHANNELS 3 Xrotation Yrotation Zrotation
				JOINT Neck
				{
					OFFSET -0.092200 14.121796 -5.138800
					CHANNELS 3 Xrotation Yrotation Zrotation
					JOINT Head
					{
						OFFSET 0.000200 10.447403 -0.842000
						CHANNELS 3 Xrotation Yrotation Zrotation
						JOINT Visor
						{
							OFFSET 0.457100 25.671204 16.550400
							CHANNELS 3 Xrotation Yrotation Zrotation
							End Site
							{
								OFFSET 0.000000 26.061493 0.000000
							}
						}
						JOINT HairMidA
						{
							OFFSET 0.459400 31.585403 8.437400
							CHANNELS 3 Xrotation Yrotation Zrotation
							End Site
							{
								OFFSET 0.000000 26.061493 0.000000
							}
						}
						JOINT HairMidB
						{
							OFFSET 0.464000 33.309204 -8.389700
							CHANNELS 3 Xrotation Yrotation Zrotation
							End Site
							{
								OFFSET 0.000000 26.061493 0.000000
							}
						}
						JOINT HairMidC
						{
							OFFSET 0.466600 27.991196 -17.375099
							CHANNELS 3 Xrotation Yrotation Zrotation
							End Site
							{
								OFFSET 0.000000 26.061493 0.000000
							}
						}
						JOINT HairMidD
						{
							OFFSET 0.467700 17.888092 -21.169500
							CHANNELS 3 Xrotation Yrotation Zrotation
							End Site
							{
								OFFSET 0.000000 26.061493 0.000000
							}
						}
						JOINT HairMidE
						{
							OFFSET 5.325700 3.514603 -14.369699
							CHANNELS 3 Xrotation Yrotation Zrotation
							End Site
							{
								OFFSET 0.000000 26.061493 0.000000
							}
						}
						JOINT HairMidF
						{
							OFFSET -4.394100 3.514603 -14.372400
							CHANNELS 3 Xrotation Yrotation Zrotation
							End Site
							{
								OFFSET 0.000000 26.061493 0.000000
							}
						}
						JOINT HairLeftA
						{
							OFFSET 15.319900 25.746506 2.623300
							CHANNELS 3 Xrotation Yrotation Zrotation
							End Site
							{
								OFFSET 0.000000 26.061493 0.000000
							}
						}
						JOINT HairLeftB
						{
							OFFSET 12.619500 29.289398 -8.731499
							CHANNELS 3 Xrotation Yrotation Zrotation
							End Site
							{
								OFFSET 0.000000 26.061493 0.000000
							}
						}
						JOINT HairLeftC
						{
							OFFSET 15.714800 15.959900 2.909800
							CHANNELS 3 Xrotation Yrotation Zrotation
							End Site
							{
								OFFSET 0.000000 26.061493 0.000000
							}
						}
						JOINT HairLeftD
						{
							OFFSET 16.101700 18.437408 -7.553200
							CHANNELS 3 Xrotation Yrotation Zrotation
							End Site
							{
								OFFSET 0.000000 26.061493 0.000000
							}
						}
						JOINT HairLeftE
						{
							OFFSET 9.731900 17.915009 -18.316799
							CHANNELS 3 Xrotation Yrotation Zrotation
							End Site
							{
								OFFSET 0.000000 26.061493 0.000000
							}
						}
						JOINT HairLeftF
						{
							OFFSET 11.204300 4.953598 -9.668100
							CHANNELS 3 Xrotation Yrotation Zrotation
							End Site
							{
								OFFSET 0.000000 26.061493 0.000000
							}
						}
						JOINT HairRightA
						{
							OFFSET -14.397900 25.746307 2.615100
							CHANNELS 3 Xrotation Yrotation Zrotation
							End Site
							{
								OFFSET 0.000000 26.061493 0.000000
							}
						}
						JOINT HairRightB
						{
							OFFSET -11.691200 29.289200 -8.738199
							CHANNELS 3 Xrotation Yrotation Zrotation
							End Site
							{
								OFFSET 0.000000 26.061493 0.000000
							}
						}
						JOINT HairRightC
						{
							OFFSET -14.792900 15.959702 2.901400
							CHANNELS 3 Xrotation Yrotation Zrotation
							End Site
							{
								OFFSET 0.000000 26.061493 0.000000
							}
						}
						JOINT HairRightD
						{
							OFFSET -15.174000 18.437195 -7.561900
							CHANNELS 3 Xrotation Yrotation Zrotation
							End Site
							{
								OFFSET 0.000000 26.061493 0.000000
							}
						}
						JOINT HairRightE
						{
							OFFSET -8.798200 17.914902 -18.322001
							CHANNELS 3 Xrotation Yrotation Zrotation
							End Site
							{
								OFFSET 0.000000 26.061493 0.000000
							}
						}
						JOINT HairRightF
						{
							OFFSET -10.275200 4.953506 -9.674099
							CHANNELS 3 Xrotation Yrotation Zrotation
							End Site
							{
								OFFSET 0.000000 26.061493 0.000000
							}
						}
					}
				}
				JOINT LeftShoulder
				{
					OFFSET 5.133500 7.341202 -1.867600
					CHANNELS 3 Xrotation Yrotation Zrotation
					JOINT LeftArm
					{
						OFFSET 8.072663 0.936867 -2.176600
						CHANNELS 3 Xrotation Yrotation Zrotation
						JOINT LeftForeArm
						{
							OFFSET 31.271999 0.000000 0.000000
							CHANNELS 3 Xrotation Yrotation Zrotation
							JOINT LeftHand
							{
								OFFSET 31.771030 0.000000 0.000000
								CHANNELS 3 Xrotation Yrotation Zrotation
								JOINT LeftHandThumb1
								{
									OFFSET 2.886520 -2.557846 4.416640
									CHANNELS 3 Xrotation Yrotation Zrotation
									JOINT LeftHandThumb2
									{
										OFFSET 2.371025 -1.368912 1.368911
										CHANNELS 3 Xrotation Yrotation Zrotation
										JOINT LeftHandThumb3
										{
											OFFSET 2.243378 -1.295212 1.295213
											CHANNELS 3 Xrotation Yrotation Zrotation
											End Site
											{
												OFFSET -0.332611 2.876945 0.020015
											}
										}
									}
								}
								JOINT LeftHandIndex1
								{
									OFFSET 8.568985 -0.641945 3.119977
									CHANNELS 3 Xrotation Yrotation Zrotation
									JOINT LeftHandIndex2
									{
										OFFSET 3.348503 0.000000 0.000000
										CHANNELS 3 Xrotation Yrotation Zrotation
										JOINT LeftHandIndex3
										{
											OFFSET 3.314552 0.000000 0.000000
											CHANNELS 3 Xrotation Yrotation Zrotation
											End Site
											{
												OFFSET -1.032898 3.075485 0.678796
											}
										}
									}
								}
								JOINT LeftHandMiddle1
								{
									OFFSET 8.124603 0.000000 0.000000
									CHANNELS 3 Xrotation Yrotation Zrotation
									JOINT LeftHandMiddle2
									{
										OFFSET 4.166275 0.000000 0.000000
										CHANNELS 3 Xrotation Yrotation Zrotation
										JOINT LeftHandMiddle3
										{
											OFFSET 3.018135 0.000000 0.000000
											CHANNELS 3 Xrotation Yrotation Zrotation
											End Site
											{
												OFFSET -1.032700 2.767982 0.617226
											}
										}
									}
								}
								JOINT LeftHandRing1
								{
									OFFSET 8.571686 -0.031357 -2.884048
									CHANNELS 3 Xrotation Yrotation Zrotation
									JOINT LeftHandRing2
									{
										OFFSET 3.671181 0.000000 0.000000
										CHANNELS 3 Xrotation Yrotation Zrotation
										JOINT LeftHandRing3
										{
											OFFSET 2.728851 0.000000 0.000000
											CHANNELS 3 Xrotation Yrotation Zrotation
											End Site
											{
												OFFSET -0.815796 2.539223 0.577389
											}
										}
									}
								}
								JOINT LeftHandPinky1
								{
									OFFSET 7.854515 -0.675232 -5.213020
									CHANNELS 3 Xrotation Yrotation Zrotation
									JOINT LeftHandPinky2
									{
										OFFSET 3.068596 0.000000 0.000000
										CHANNELS 3 Xrotation Yrotation Zrotation
										JOINT LeftHandPinky3
										{
											OFFSET 2.396042 0.000000 0.000000
											CHANNELS 3 Xrotation Yrotation Zrotation
											End Site
											{
												OFFSET -0.524597 2.267998 0.567429
											}
										}
									}
								}
							}
							JOINT LeftSleeve
							{
								OFFSET 19.684509 -0.200119 0.476146
								CHANNELS 3 Xrotation Yrotation Zrotation
								End Site
								{
									OFFSET -0.031017 25.731133 -0.002868
								}
							}
						}
					}
				}
				JOINT RightShoulder
				{
					OFFSET -4.395900 7.341202 -1.870200
					CHANNELS 3 Xrotation Yrotation Zrotation
					JOINT RightArm
					{
						OFFSET -8.071453 0.936867 -2.181100
						CHANNELS 3 Xrotation Yrotation Zrotation
						JOINT RightForeArm
						{
							OFFSET -31.272011 0.000000 0.000000
							CHANNELS 3 Xrotation Yrotation Zrotation
							JOINT RightHand
							{
								OFFSET -31.771019 0.000000 0.000000
								CHANNELS 3 Xrotation Yrotation Zrotation
								JOINT RightHandThumb1
								{
									OFFSET -2.886520 -2.557808 4.416626
									CHANNELS 3 Xrotation Yrotation Zrotation
									JOINT RightHandThumb2
									{
										OFFSET -2.371056 -1.368927 1.368928
										CHANNELS 3 Xrotation Yrotation Zrotation
										JOINT RightHandThumb3
										{
											OFFSET -2.243362 -1.295204 1.295206
											CHANNELS 3 Xrotation Yrotation Zrotation
											End Site
											{
												OFFSET 0.332642 2.876938 0.020047
											}
										}
									}
								}
								JOINT RightHandIndex1
								{
									OFFSET -8.568993 -0.641953 3.120017
									CHANNELS 3 Xrotation Yrotation Zrotation
									JOINT RightHandIndex2
									{
										OFFSET -3.348518 0.000000 0.000000
										CHANNELS 3 Xrotation Yrotation Zrotation
										JOINT RightHandIndex3
										{
											OFFSET -3.314552 0.000000 0.000000
											CHANNELS 3 Xrotation Yrotation Zrotation
											End Site
											{
												OFFSET 1.032898 3.075478 0.678804
											}
										}
									}
								}
								JOINT RightHandMiddle1
								{
									OFFSET -8.124588 0.000000 0.000000
									CHANNELS 3 Xrotation Yrotation Zrotation
									JOINT RightHandMiddle2
									{
										OFFSET -4.166275 0.000000 0.000000
										CHANNELS 3 Xrotation Yrotation Zrotation
										JOINT RightHandMiddle3
										{
											OFFSET -3.018097 0.000000 0.000000
											CHANNELS 3 Xrotation Yrotation Zrotation
											End Site
											{
												OFFSET 1.032700 2.767937 0.617197
											}
										}
									}
								}
								JOINT RightHandRing1
								{
									OFFSET -8.571747 -0.031349 -2.884061
									CHANNELS 3 Xrotation Yrotation Zrotation
									JOINT RightHandRing2
									{
										OFFSET -3.671204 0.000000 0.000000
										CHANNELS 3 Xrotation Yrotation Zrotation
										JOINT RightHandRing3
										{
											OFFSET -2.728874 0.000000 0.000000
											CHANNELS 3 Xrotation Yrotation Zrotation
											End Site
											{
												OFFSET 0.815804 2.539261 0.577413
											}
										}
									}
								}
								JOINT RightHandPinky1
								{
									OFFSET -7.854561 -0.675247 -5.212970
									CHANNELS 3 Xrotation Yrotation Zrotation
									JOINT RightHandPinky2
									{
										OFFSET -3.068550 0.000000 0.000000
										CHANNELS 3 Xrotation Yrotation Zrotation
										JOINT RightHandPinky3
										{
											OFFSET -2.395981 0.000000 0.000000
											CHANNELS 3 Xrotation Yrotation Zrotation
											End Site
											{
												OFFSET 0.524605 2.267952 0.567413
											}
										}
									}
								}
							}
							JOINT RightSleeve
							{
								OFFSET -19.684753 -0.200165 0.476065
								CHANNELS 3 Xrotation Yrotation Zrotation
								End Site
								{
									OFFSET 0.031342 25.731255 -0.002917
								}
							}
						}
					}
				}
				JOINT Hood
				{
					OFFSET 0.369700 14.447800 -5.317800
					CHANNELS 3 Xrotation Yrotation Zrotation
					JOINT Hood1
					{
						OFFSET 0.001700 -5.553802 -5.895100
						CHANNELS 3 Xrotation Yrotation Zrotation
						JOINT Hood2
						{
							OFFSET -0.000200 -8.380501 0.763600
							CHANNELS 3 Xrotation Yrotation Zrotation
							End Site
							{
								OFFSET 0.000000 8.415215 0.000000
							}
						}
					}
				}
				JOINT Left_Breast
				{
					OFFSET 5.682500 3.120102 3.188800
					CHANNELS 3 Xrotation Yrotation Zrotation
					End Site
					{
						OFFSET 0.000000 10.528564 0.000000
					}
				}
				JOINT Right_Breast
				{
					OFFSET -4.947600 3.120102 3.185900
					CHANNELS 3 Xrotation Yrotation Zrotation
					End Site
					{
						OFFSET 0.000000 10.528564 0.000000
					}
				}
				JOINT Whistle
				{
					OFFSET 0.368200 11.471298 0.095400
					CHANNELS 3 Xrotation Yrotation Zrotation
					JOINT Whistle1
					{
						OFFSET -0.002000 -6.349899 7.479800
						CHANNELS 3 Xrotation Yrotation Zrotation
						JOINT Whistle2
						{
							OFFSET -0.001300 -8.217598 4.717600
							CHANNELS 3 Xrotation Yrotation Zrotation
							End Site
							{
								OFFSET 0.000000 9.475479 0.000000
							}
						}
					}
				}
			}
		}
		JOINT Belly
		{
			OFFSET 0.212400 1.593002 3.163700
			CHANNELS 3 Xrotation Yrotation Zrotation
			End Site
			{
				OFFSET 0.000000 7.496635 0.000000
			}
		}
	}
	JOINT FitGrandmaFacialAnim_Joint
	{
		OFFSET 1.150000 -86.211197 -1.220100
		CHANNELS 3 Xrotation Yrotation Zrotation
		End Site
		{
			OFFSET 0.000000 31.666618 0.000000
		}
	}
}
MOTION
Frames: 4
Frame Time: 0.016667
-1.401520 77.659775 0.296949 9.530628 -61.580139 10.129243 0.000000 -0.000001 0.000000 -34.260202 12.360077 24.968706 38.594889 -8.043933 1.252491 -10.580545 -1.497952 -17.263559 0.000000 0.000000 -0.000000 -0.000000 0.000001 -0.000001 -0.000004 -0.000000 -0.000002 -27.802625 -21.072722 -33.468210 37.981132 4.976462 -4.321245 -17.440862 -0.607944 24.099674 0.000000 -0.000000 -0.000000 -0.000002 -0.000001 -0.000001 0.000000 0.000000 -0.000000 15.063868 -0.359919 -4.271040 5.872399 0.563941 -2.798215 5.868714 0.648184 -2.860163 -3.632879 1.437145 3.747501 -20.005952 54.836765 2.407363 0.000000 -0.000000 -0.000000 0.000000 -0.000000 -0.000000 0.000000 -0.000000 -0.000000 0.000000 -0.000000 -0.000000 0.000000 -0.000000 -0.000000 0.000000 -0.000000 -0.000000 0.000000 -0.000000 -0.000000 0.000000 -0.000000 -0.000000 0.000000 -0.000000 -0.000000 0.000000 -0.000000 -0.000000 0.000000 -0.000000 -0.000000 0.000000 -0.000000 -0.000000 0.000000 -0.000000 -0.000000 0.000000 -0.000000 -0.000000 0.000000 -0.000000 -0.000000 0.000000 -0.000000 -0.000000 0.000000 -0.000000 -0.000000 0.000000 -0.000000 -0.000000 0.000000 -0.000000 -0.000000 1.828104 -3.192690 -12.271572 -39.387403 26.350494 -34.911105 0.429350 -46.808444 0.416183 -10.315060 -0.130719 0.363016 40.109931 -15.297206 -0.360491 5.639805 28.097945 11.338847 -0.000000 0.000001 -0.000001 6.882243 2.840040 -61.140397 8.247984 7.640028 -89.897878 -0.000002 -0.000002 0.000002 -2.345506 4.688848 -62.655210 8.754146 9.897059 -87.051321 -0.000001 0.000003 -0.000004 -9.042451 10.045671 -60.766171 8.524097 9.508854 -66.893042 0.000001 -0.000002 -0.000002 -17.946932 14.754969 -51.485864 8.868421 8.667033 -84.811989 -0.000003 0.000000 0.000000 0.000003 0.000000 -0.000002 0.632606 7.257351 8.700387 7.936008 -9.680150 53.429916 -22.867427 36.194692 17.955447 -27.369941 10.432888 -17.813548 -2.346180 -6.100564 10.731433 2.364038 -23.806303 -8.771082 0.000000 0.000001 0.000004 -0.054757 0.532089 0.738736 0.019769 -0.087304 5.078501 -0.000000 -0.000000 0.000005 0.348262 -5.918532 2.583823 1.432597 -4.204216 24.052096 0.000001 -0.000000 0.000000 1.205814 -11.756071 4.154781 1.794843 -3.771877 26.865405 -0.000000 -0.000004 -0.000001 2.126196 -19.166880 11.319963 3.354773 -2.122229 18.828542 -0.000001 0.000000 0.000003 -0.000002 -0.000000 -0.000001 0.000002 0.000001 -0.000002 0.000002 0.000001 -0.000002 0.000002 0.000001 -0.000002 0.000002 0.000001 -0.000002 0.000002 0.000001 -0.000002 0.000002 0.000001 -0.000001 -0.000000 -0.000000 -0.000000 -0.000000 -0.000000 -0.000000 0.000001 -0.000001 0.000001 0.000000 -0.000001 0.000000 
-1.092419 77.360611 -0.035374 9.940431 -55.311661 8.122258 0.000000 0.000000 -0.000000 -38.951343 8.521224 25.117684 39.042201 -9.204580 1.448925 -8.546139 -4.304620 -16.786271 0.000000 0.000003 -0.000000 0.000001 0.000001 0.000004 0.000001 -0.000001 0.000001 -26.742424 -21.334395 -32.058644 41.727535 1.502642 -2.298980 -18.894622 -1.230193 23.343701 0.000000 -0.000000 -0.000000 0.000000 -0.000000 0.000002 -0.000000 -0.000000 0.000002 18.427113 -0.524607 -3.530685 7.295525 -0.352586 -0.796545 7.297471 -0.185246 -0.836846 -9.418997 1.041047 2.964135 -33.847136 49.164443 3.507832 0.000000 -0.000000 0.000000 0.000000 -0.000000 0.000000 0.000000 -0.000000 0.000000 0.000000 -0.000000 0.000000 0.000000 -0.000000 0.000000 0.000000 -0.000000 0.000000 0.000000 -0.000000 0.000000 0.000000 -0.000000 0.000000 0.000000 -0.000000 0.000000 0.000000 -0.000000 0.000000 0.000000 -0.000000 0.000000 0.000000 -0.000000 0.000000 0.000000 -0.000000 0.000000 0.000000 -0.000000 0.000000 0.000000 -0.000000 0.000000 0.000000 -0.000000 0.000000 0.000000 -0.000000 0.000000 0.000000 -0.000000 0.000000 0.000000 -0.000000 0.000000 3.590648 -8.212485 -8.338649 -17.336425 15.897245 -30.473753 -15.109919 -56.231981 -14.869709 -11.534117 1.944491 -6.382506 40.109931 -15.297202 -0.360486 5.639807 28.097950 11.338847 0.000001 0.000001 -0.000000 6.882252 2.840046 -61.140397 8.247983 7.640030 -89.897878 0.000001 -0.000000 0.000000 -2.345501 4.688851 -62.655217 8.754148 9.897056 -87.051321 0.000004 -0.000001 -0.000002 -9.042445 10.045673 -60.766185 8.524097 9.508861 -66.893042 0.000000 -0.000005 0.000003 -17.946923 14.754974 -51.485864 8.868423 8.667031 -84.811989 -0.000004 0.000000 -0.000002 0.000001 -0.000001 0.000001 2.195474 10.570691 6.739740 12.334686 -2.089150 49.300606 -23.008768 37.026794 18.727897 -25.845441 16.676409 -17.494134 0.214178 -4.319357 5.919517 1.314325 -24.654488 -5.837901 -0.000002 0.000001 0.000001 0.333205 0.054700 1.470555 -0.415181 -0.423084 6.838784 -0.000001 -0.000003 0.000004 -0.032237 -5.717565 3.568889 1.219207 -4.302295 24.290267 -0.000002 0.000002 0.000001 0.521316 -11.018101 4.548192 2.135394 -3.822166 27.589379 -0.000000 0.000000 -0.000001 0.964453 -17.509379 12.312418 4.696297 -2.397692 20.330903 -0.000003 -0.000000 0.000002 0.000000 0.000001 0.000001 0.000001 0.000001 0.000000 0.000001 0.000001 0.000000 0.000001 0.000001 0.000000 0.000001 0.000001 0.000000 0.000001 0.000001 0.000000 0.000001 0.000001 -0.000002 -0.000000 0.000000 -0.000002 -0.000000 0.000000 -0.000002 -0.000000 -0.000000 -0.000000 0.000000 0.000000 -0.000000 
-1.264674 76.899094 0.040869 8.508556 -43.287714 5.929455 0.000000 0.000001 -0.000000 -43.216550 4.881116 21.077358 37.423143 -14.370284 0.978739 -4.597897 -6.905698 -14.749599 0.000000 0.000003 0.000000 -0.000001 0.000002 0.000001 -0.000006 0.000002 -0.000002 -21.500370 -24.023869 -32.544345 43.311585 -4.238036 0.378216 -19.917986 -2.698561 27.245106 0.000000 0.000000 -0.000000 -0.000001 -0.000001 -0.000000 -0.000002 -0.000000 -0.000001 19.043418 -0.450366 -1.652392 8.434695 -1.248264 0.996151 8.432950 -1.053498 0.978036 -4.999485 -0.762672 5.645547 -37.843264 41.961021 5.245534 -0.000000 0.000000 -0.000000 -0.000000 0.000000 -0.000000 -0.000000 0.000000 -0.000000 -0.000000 0.000000 -0.000000 -0.000000 0.000000 -0.000000 -0.000000 0.000000 -0.000000 -0.000000 0.000000 -0.000000 -0.000000 0.000000 -0.000000 -0.000000 0.000000 -0.000000 -0.000000 0.000000 -0.000000 -0.000000 0.000000 -0.000000 -0.000000 0.000000 -0.000000 -0.000000 0.000000 -0.000000 -0.000000 0.000000 -0.000000 -0.000000 0.000000 -0.000000 -0.000000 0.000000 -0.000000 -0.000000 0.000000 -0.000000 -0.000000 0.000000 -0.000000 -0.000000 0.000000 -0.000000 3.416880 -8.568155 -4.408955 -14.803026 11.945494 -33.781754 -16.458843 -59.708838 -14.596261 -9.671806 4.965360 -21.142576 40.109938 -15.297204 -0.360492 5.639804 28.097949 11.338837 0.000001 -0.000000 0.000002 6.882245 2.840042 -61.140397 8.247980 7.640028 -89.897871 0.000003 0.000001 0.000003 -2.345506 4.688849 -62.655217 8.754143 9.897059 -87.051314 0.000001 -0.000001 -0.000002 -9.042446 10.045671 -60.766178 8.524099 9.508857 -66.893042 0.000002 0.000000 0.000002 -17.946932 14.754969 -51.485864 8.868427 8.667033 -84.811989 -0.000004 -0.000000 0.000001 -0.000002 -0.000000 0.000001 2.138321 11.266869 6.137824 17.411424 3.777410 45.935945 -16.048074 34.606779 15.226667 -24.851903 19.175855 -10.594060 3.146380 -2.974241 1.047983 0.338226 -25.670414 -2.901113 0.000002 -0.000001 -0.000003 0.732170 -0.412266 2.206439 -0.830869 -0.784112 8.596231 -0.000002 0.000001 -0.000000 -0.419546 -5.531673 4.555030 1.000262 -4.405244 24.527542 -0.000002 -0.000000 -0.000001 -0.173221 -10.295276 4.954417 2.478527 -3.867639 28.313815 0.000001 0.000000 -0.000001 -0.259735 -15.908928 13.341567 6.053401 -2.603404 21.859115 -0.000000 0.000001 -0.000003 -0.000000 -0.000002 -0.000001 -0.000002 0.000000 -0.000002 -0.000002 0.000000 -0.000002 -0.000002 0.000000 -0.000002 -0.000002 0.000000 -0.000002 -0.000002 0.000000 -0.000002 -0.000002 0.000000 -0.000000 -0.000001 0.000001 0.000001 -0.000001 0.000001 0.000001 -0.000000 0.000002 0.000000 0.000000 0.000001 -0.000000 
-1.983150 76.708366 0.307399 5.156291 -29.712119 5.669765 0.000000 0.000001 -0.000000 -42.854304 5.664918 13.851714 31.422661 -19.544154 -0.057939 1.234604 -11.801094 -12.601124 0.000000 0.000000 -0.000000 -0.000001 0.000004 0.000000 -0.000001 -0.000000 -0.000001 -14.015459 -26.662509 -33.286551 45.479935 -10.303211 1.671353 -21.155797 -3.973981 28.657773 -0.000001 0.000001 -0.000000 0.000001 0.000000 0.000001 -0.000001 -0.000002 0.000002 17.946937 0.215702 -1.674971 7.663510 -0.055102 1.868088 7.656353 0.145383 1.807653 11.921170 -3.328152 12.513448 -29.858230 34.396559 5.825775 0.000001 0.000000 -0.000001 0.000001 0.000000 -0.000001 0.000001 0.000000 -0.000001 0.000001 0.000000 -0.000001 0.000001 0.000000 -0.000001 0.000001 0.000000 -0.000001 0.000001 0.000000 -0.000001 0.000001 0.000000 -0.000001 0.000001 0.000000 -0.000001 0.000001 0.000000 -0.000001 0.000001 0.000000 -0.000001 0.000001 0.000000 -0.000001 0.000001 0.000000 -0.000001 0.000001 0.000000 -0.000001 0.000001 0.000000 -0.000001 0.000001 0.000000 -0.000001 0.000001 0.000000 -0.000001 0.000001 0.000000 -0.000001 0.000001 0.000000 -0.000001 1.265611 -7.131525 -5.657128 -23.592590 7.588120 -38.951322 11.776946 -59.937137 11.769770 -8.770858 10.933214 -13.361119 40.109931 -15.297202 -0.360487 5.639802 28.097949 11.338847 -0.000001 -0.000000 -0.000000 6.882244 2.840044 -61.140397 8.247984 7.640030 -89.897878 0.000000 0.000002 -0.000001 -2.345505 4.688850 -62.655217 8.754143 9.897061 -87.051321 -0.000001 0.000000 -0.000003 -9.042442 10.045668 -60.766171 8.524097 9.508857 -66.893042 0.000003 0.000000 -0.000001 -17.946925 14.754966 -51.485864 8.868432 8.667038 -84.811982 -0.000003 0.000000 -0.000002 0.000000 -0.000001 0.000001 0.254892 10.476043 11.937811 21.048080 3.074631 42.497724 -10.393987 28.226107 14.523748 -24.135628 14.464047 8.084073 6.401486 -2.095816 -3.851040 -0.551823 -26.850020 0.038794 -0.000001 -0.000001 -0.000000 1.142045 -0.868713 2.949717 -1.226182 -1.169347 10.346281 -0.000001 0.000000 0.000001 -0.813165 -5.361011 5.543580 0.782484 -4.510073 24.763261 -0.000000 0.000001 -0.000003 -0.877469 -9.587930 5.372619 2.822596 -3.905258 29.040066 -0.000000 -0.000001 0.000001 -1.545734 -14.365771 14.409143 7.422743 -2.738233 23.406273 -0.000000 0.000002 -0.000001 0.000000 0.000001 0.000000 -0.000001 -0.000001 -0.000000 -0.000001 -0.000001 -0.000000 -0.000001 -0.000001 -0.000000 -0.000001 -0.000001 -0.000000 -0.000001 -0.000001 -0.000000 -0.000001 -0.000001 0.000000 -0.000004 -0.000001 -0.000001 -0.000004 -0.000001 -0.000001 0.000000 0.000002 -0.000001 0.000000 0.000001 -0.000000 
